<svg xmlns="http://www.w3.org/2000/svg" width="128" height="128" viewBox="0 0 128 128"><defs><linearGradient id="m-gold" x1="0" y1="0" x2="0" y2="1"><stop offset="0" stop-color="#ffe58a"/><stop offset="1" stop-color="#e39a1c"/></linearGradient><linearGradient id="m-wheat" x1="0" y1="0" x2="0" y2="1"><stop offset="0" stop-color="#ffdc6e"/><stop offset="1" stop-color="#e59c22"/></linearGradient><linearGradient id="m-wood" x1="0" y1="0" x2="0" y2="1"><stop offset="0" stop-color="#cf9255"/><stop offset="1" stop-color="#93592a"/></linearGradient><linearGradient id="m-bark" x1="0" y1="0" x2="0" y2="1"><stop offset="0" stop-color="#8a5630"/><stop offset="1" stop-color="#58331b"/></linearGradient><linearGradient id="m-stone" x1="0" y1="0" x2="0" y2="1"><stop offset="0" stop-color="#cfd6dc"/><stop offset="1" stop-color="#8a949f"/></linearGradient><linearGradient id="m-steel" x1="0" y1="0" x2="0" y2="1"><stop offset="0" stop-color="#f2f6f8"/><stop offset="1" stop-color="#9aacba"/></linearGradient><linearGradient id="m-red" x1="0" y1="0" x2="0" y2="1"><stop offset="0" stop-color="#f06a54"/><stop offset="1" stop-color="#a82f2a"/></linearGradient><linearGradient id="m-green" x1="0" y1="0" x2="0" y2="1"><stop offset="0" stop-color="#9be063"/><stop offset="1" stop-color="#3f8f2e"/></linearGradient><linearGradient id="m-blue" x1="0" y1="0" x2="0" y2="1"><stop offset="0" stop-color="#74c6e6"/><stop offset="1" stop-color="#2b78a6"/></linearGradient><linearGradient id="m-cream" x1="0" y1="0" x2="0" y2="1"><stop offset="0" stop-color="#fffaec"/><stop offset="1" stop-color="#ecd9ae"/></linearGradient><linearGradient id="m-parch" x1="0" y1="0" x2="0" y2="1"><stop offset="0" stop-color="#f7ebcd"/><stop offset="1" stop-color="#dcc592"/></linearGradient><linearGradient id="m-dark" x1="0" y1="0" x2="0" y2="1"><stop offset="0" stop-color="#5a4334"/><stop offset="1" stop-color="#33231a"/></linearGradient><linearGradient id="m-skin" x1="0" y1="0" x2="0" y2="1"><stop offset="0" stop-color="#f6d3ae"/><stop offset="1" stop-color="#dba87a"/></linearGradient><filter id="shadow" x="-20%" y="-20%" width="140%" height="140%"><feDropShadow dx="0" dy="3" stdDeviation="2.2" flood-color="#000" flood-opacity="0.4"/></filter></defs><g filter="url(#shadow)"><path d="M60 24 C58 4 88 0 106 14 C118 24 118 42 110 56 C108 40 98 28 80 24Z" fill="url(#m-red)" stroke="#2b1a0f" stroke-width="5" stroke-linejoin="round" stroke-linecap="round" /><path d="M70 14 C82 10 96 14 104 24" fill="none" stroke="#fff" stroke-width="3.5" stroke-linecap="round" stroke-linejoin="round" opacity="0.45"/><path d="M24 102 L24 60 C24 34 42 20 64 20 C86 20 104 34 104 60 L104 102 C92 112 78 112 70 108 L64 100 L58 108 C50 112 36 112 24 102Z" fill="url(#m-steel)" stroke="#2b1a0f" stroke-width="5" stroke-linejoin="round" stroke-linecap="round" /><path d="M92 40 C100 46 102 54 102 60 L102 101 C98 104 94 106 90 107Z" fill="#5f7686" opacity="0.35"/><path d="M38 58 L90 58 L90 72 L71 72 L71 96 L57 96 L57 72 L38 72Z" fill="#2a1c14" stroke="#2b1a0f" stroke-width="4" stroke-linejoin="round" stroke-linecap="round" /><path d="M64 24 L64 54" fill="none" stroke="#7d92a2" stroke-width="4" stroke-linecap="round" stroke-linejoin="round" opacity="0.6"/><path d="M32 56 C32 40 42 30 54 27" fill="none" stroke="#fff" stroke-width="4" stroke-linecap="round" stroke-linejoin="round" opacity="0.85"/><circle cx="31" cy="84" r="2.6" fill="#6f8494" opacity="1.0"/><circle cx="31" cy="98" r="2.6" fill="#6f8494" opacity="1.0"/><circle cx="97" cy="84" r="2.6" fill="#6f8494" opacity="1.0"/><circle cx="97" cy="98" r="2.6" fill="#6f8494" opacity="1.0"/></g></svg>
